#N canvas 302 227 1307 944 10;
#X obj 48 566 dac~ 1;
#X obj 53 510 *~;
#X obj 423 335 line~;
#X msg 501 64 0 100;
#X text 415 34 on;
#X text 513 36 off;
#N canvas 0 0 450 300 (subpatch) 0;
#X array \$0-array 100 float 0 black black;
#X coords 0 -1 99 1 167 93 1;
#X restore 110 308 graph;
#X obj 276 142 loadbang;
#X obj 179 279 tabwrite~ \$0-array;
#X obj 619 35 import mrpeach;
#X obj 51 34 udpreceive 1337;
#X obj 51 69 unpackOSC;
#X obj 50 102 routeOSC /note/pitch;
#X obj 49 133 t f;
#X obj 45 189 line 500 10;
#X obj 47 160 50, f 9;
#X obj 46 220 phasor~;
#X obj 274 172 metro 10;
#X text 52 -21 Example tone wanger;
#X msg 415 64 0.2 100;
#X connect 1 0 0 0;
#X connect 2 0 1 1;
#X connect 3 0 2 0;
#X connect 7 0 17 0;
#X connect 10 0 11 0;
#X connect 11 0 12 0;
#X connect 12 0 13 0;
#X connect 13 0 15 0;
#X connect 14 0 16 0;
#X connect 15 0 14 0;
#X connect 16 0 1 0;
#X connect 16 0 8 0;
#X connect 17 0 8 0;
#X connect 19 0 2 0;
